<svg xmlns="http://www.w3.org/2000/svg" viewBox="0 0 78.16 43.8"><defs><style>.cls-1{isolation:isolate;}.cls-2{fill:#feb534;}.cls-2,.cls-4,.cls-6,.cls-7{stroke:#233539;stroke-miterlimit:10;}.cls-2,.cls-7{stroke-width:2px;}.cls-3{fill:#ffcb48;opacity:0.3;mix-blend-mode:overlay;}.cls-4,.cls-7{fill:#f6f6f6;}.cls-4{stroke-width:1.73px;}.cls-5{fill:#233539;}.cls-6{fill:none;stroke-width:1.29px;}</style></defs><title>Asset 44</title><g class="cls-1"><g id="Layer_2" data-name="Layer 2"><g id="Layer_1-2" data-name="Layer 1"><path class="cls-2" d="M61.19,42.8H9.9A8.9,8.9,0,0,0,1,33.9V16.19a8.9,8.9,0,0,0,8.9-8.9H61.19a8.9,8.9,0,0,0,8.9,8.9V33.9A8.9,8.9,0,0,0,61.19,42.8Z"/><path class="cls-3" d="M63.89,15s-11,19-34,20S7.8,37.19,7.8,37.19L1.16,33.28.89,16s5.22,1.67,7.61-3.17S9.89,8,9.89,8h51Z"/><path class="cls-4" d="M33,24,23.6,18.17a1.23,1.23,0,0,0-1.88,1V30.88a1.23,1.23,0,0,0,1.88,1L33,26.1A1.23,1.23,0,0,0,33,24Z"/><circle class="cls-5" cx="42.8" cy="22.43" r="1.05" transform="translate(20.05 65.06) rotate(-89.56)"/><circle class="cls-5" cx="42.85" cy="17.03" r="1.05" transform="translate(25.49 59.75) rotate(-89.56)"/><circle class="cls-5" cx="42.76" cy="27.67" r="1.05" transform="translate(14.76 70.23) rotate(-89.56)"/><circle class="cls-5" cx="42.72" cy="32.92" r="1.05" transform="translate(9.48 75.39) rotate(-89.56)"/><path class="cls-6" d="M61.19,42.8H9.9A8.9,8.9,0,0,0,1,33.9V16.19a8.9,8.9,0,0,0,8.9-8.9H61.19a8.9,8.9,0,0,0,8.9,8.9V33.9A8.9,8.9,0,0,0,61.19,42.8Z"/><circle class="cls-7" cx="63.66" cy="14.5" r="13.5"/><path class="cls-5" d="M65.61,21q0-.78,0-1.64t-.05-1.75q0-.89-.11-1.79t-.17-1.74a20.92,20.92,0,0,0-.75-3.51,11.62,11.62,0,0,0-1.23-2.72l-1.49,1a9.38,9.38,0,0,1,1.07,2.44,20.82,20.82,0,0,1,.61,3q.22,1.59.28,3.32T63.83,21Z"/></g></g></g></svg>