<svg xmlns="http://www.w3.org/2000/svg" viewBox="0 0 78.16 43.8"><defs><style>.cls-1{isolation:isolate;}.cls-2{fill:#f78926;}.cls-2,.cls-4,.cls-6,.cls-7{stroke:#233539;stroke-miterlimit:10;}.cls-2,.cls-7{stroke-width:2px;}.cls-3{fill:#ffcb48;opacity:0.3;mix-blend-mode:overlay;}.cls-4,.cls-7{fill:#f6f6f6;}.cls-4{stroke-width:1.73px;}.cls-5{fill:#233539;}.cls-6{fill:none;stroke-width:1.29px;}</style></defs><title>Asset 45</title><g class="cls-1"><g id="Layer_2" data-name="Layer 2"><g id="Layer_1-2" data-name="Layer 1"><path class="cls-2" d="M61.19,42.8H9.9A8.9,8.9,0,0,0,1,33.9V16.19a8.9,8.9,0,0,0,8.9-8.9H61.19a8.9,8.9,0,0,0,8.9,8.9V33.9A8.9,8.9,0,0,0,61.19,42.8Z"/><path class="cls-3" d="M63.89,15s-11,19-34,20S7.8,37.19,7.8,37.19L1.16,33.28.89,16s5.22,1.67,7.61-3.17S9.89,8,9.89,8h51Z"/><path class="cls-4" d="M33,24,23.6,18.17a1.23,1.23,0,0,0-1.88,1V30.88a1.23,1.23,0,0,0,1.88,1L33,26.1A1.23,1.23,0,0,0,33,24Z"/><circle class="cls-5" cx="42.8" cy="22.43" r="1.05" transform="translate(20.05 65.06) rotate(-89.56)"/><circle class="cls-5" cx="42.85" cy="17.03" r="1.05" transform="translate(25.49 59.75) rotate(-89.56)"/><circle class="cls-5" cx="42.76" cy="27.67" r="1.05" transform="translate(14.76 70.23) rotate(-89.56)"/><circle class="cls-5" cx="42.72" cy="32.92" r="1.05" transform="translate(9.48 75.39) rotate(-89.56)"/><path class="cls-6" d="M61.19,42.8H9.9A8.9,8.9,0,0,0,1,33.9V16.19a8.9,8.9,0,0,0,8.9-8.9H61.19a8.9,8.9,0,0,0,8.9,8.9V33.9A8.9,8.9,0,0,0,61.19,42.8Z"/><circle class="cls-7" cx="63.66" cy="14.5" r="13.5"/><path class="cls-5" d="M67.65,7.88q.14.77.21,1.33a8.78,8.78,0,0,1,.06,1,4.57,4.57,0,0,1,0,.61,3.55,3.55,0,0,1-.08.43,1.31,1.31,0,0,1-.11.28l-.1.16-.15.12a.72.72,0,0,1-.34.06l-.14,0-.19-.11a1.18,1.18,0,0,1-.22-.27,2.78,2.78,0,0,1-.23-.5,7.63,7.63,0,0,1-.24-1.08q-.1-.61-.15-1.16c0-.2,0-.37,0-.52s0-.25,0-.32V7.68l-1.78.22s0,.13,0,.28,0,.32,0,.5,0,.35,0,.52,0,.28,0,.35A5.28,5.28,0,0,1,64,10.81a2.09,2.09,0,0,1-.4.83,1.13,1.13,0,0,1-.31.28.93.93,0,0,1-.45.09,1.81,1.81,0,0,1-.66-.1,1.15,1.15,0,0,1-.46-.34,3,3,0,0,1-.38-.61q-.18-.38-.43-.93l-.42-.91-.18-.37-.18-.37L59.93,8l-.15-.26-1.62,1a6.81,6.81,0,0,1,.37.66c.11.22.21.45.31.68l0,.07.05.13a17,17,0,0,1,.63,2q.27,1.06.44,2.22t.27,2.41q.09,1.25.09,2.54,0,.36,0,.76t0,.77h1.79q0-.8,0-1.66t0-1.74q0-.88-.1-1.77T61.76,14l0-.21,0-.22a3,3,0,0,0,.53.14,3.85,3.85,0,0,0,.59,0A2.65,2.65,0,0,0,64,13.53a3.13,3.13,0,0,0,.93-.74l.18-.27a2.83,2.83,0,0,0,.48.54,2.23,2.23,0,0,0,1,.51,2.45,2.45,0,0,0,.48,0,2.49,2.49,0,0,0,1-.22,2.3,2.3,0,0,0,.81-.62,4,4,0,0,0,.73-2.6A10.49,10.49,0,0,0,69.61,9q-.08-.65-.22-1.43Z"/></g></g></g></svg>