<svg xmlns="http://www.w3.org/2000/svg" viewBox="0 0 78.16 43.8"><defs><style>.cls-1{isolation:isolate;}.cls-2{fill:#f4682a;}.cls-2,.cls-4,.cls-6,.cls-7{stroke:#233539;stroke-miterlimit:10;}.cls-2,.cls-7{stroke-width:2px;}.cls-3{fill:#ffaa3b;opacity:0.58;mix-blend-mode:overlay;}.cls-4,.cls-7{fill:#f6f6f6;}.cls-4{stroke-width:1.73px;}.cls-5{fill:#233539;}.cls-6{fill:none;stroke-width:1.29px;}</style></defs><title>Asset 46</title><g class="cls-1"><g id="Layer_2" data-name="Layer 2"><g id="Layer_1-2" data-name="Layer 1"><path class="cls-2" d="M61.19,42.8H9.9A8.9,8.9,0,0,0,1,33.9V16.19a8.9,8.9,0,0,0,8.9-8.9H61.19a8.9,8.9,0,0,0,8.9,8.9V33.9A8.9,8.9,0,0,0,61.19,42.8Z"/><path class="cls-3" d="M63.89,15s-11,19-34,20S7.8,37.19,7.8,37.19L1.16,33.28.89,16s5.22,1.67,7.61-3.17S9.89,8,9.89,8h51Z"/><path class="cls-4" d="M33,24,23.6,18.17a1.23,1.23,0,0,0-1.88,1V30.88a1.23,1.23,0,0,0,1.88,1L33,26.1A1.23,1.23,0,0,0,33,24Z"/><circle class="cls-5" cx="42.8" cy="22.43" r="1.05" transform="translate(20.05 65.06) rotate(-89.56)"/><circle class="cls-5" cx="42.85" cy="17.03" r="1.05" transform="translate(25.49 59.75) rotate(-89.56)"/><circle class="cls-5" cx="42.76" cy="27.67" r="1.05" transform="translate(14.76 70.23) rotate(-89.56)"/><circle class="cls-5" cx="42.72" cy="32.92" r="1.05" transform="translate(9.48 75.39) rotate(-89.56)"/><path class="cls-6" d="M61.19,42.8H9.9A8.9,8.9,0,0,0,1,33.9V16.19a8.9,8.9,0,0,0,8.9-8.9H61.19a8.9,8.9,0,0,0,8.9,8.9V33.9A8.9,8.9,0,0,0,61.19,42.8Z"/><circle class="cls-7" cx="63.66" cy="14.5" r="13.5"/><path class="cls-5" d="M61.31,20.9l.1-.26q.09-.26.28-.68t.47-1q.29-.56.67-1.17t.87-1.25a10.69,10.69,0,0,1,1.08-1.21,10,10,0,0,1,1.3-1.05,7.35,7.35,0,0,1,1.53-.79h0L68,13.4l.3-.11-.52-1.7-.24.08-.24.09h0l-.2.06-.62.18q-.36.1-.77.18t-.85.13a5.86,5.86,0,0,1-.85,0,2.36,2.36,0,0,1-.62-.08,2.46,2.46,0,0,1-.5-.19,1.61,1.61,0,0,1-.37-.26.8.8,0,0,1-.2-.29,1.76,1.76,0,0,1-.07-.46,1.64,1.64,0,0,1,.2-.78A2.11,2.11,0,0,1,63,9.62a3.13,3.13,0,0,1,.73-.37,2.59,2.59,0,0,1,.92-.17,3.06,3.06,0,0,1,.81.12,3.36,3.36,0,0,1,.88.4l.91-1.54A5.53,5.53,0,0,0,66,7.49a4.75,4.75,0,0,0-1.31-.19h-.3A4.47,4.47,0,0,0,63,7.6a4.56,4.56,0,0,0-1.13.62,3.92,3.92,0,0,0-1.08,1.29,3.31,3.31,0,0,0-.39,1.55,3.48,3.48,0,0,0,.13,1,2.29,2.29,0,0,0,.39.77,2.89,2.89,0,0,0,.66.62,3.71,3.71,0,0,0,.87.44,4.24,4.24,0,0,0,1,.23,11.75,11.75,0,0,0-1.06,1.16q-.52.65-1,1.35t-.76,1.28q-.33.62-.55,1.11t-.35.83q-.13.33-.15.42h0l0,.08v.05Z"/></g></g></g></svg>